<?xml version="1.0" encoding="utf-8"?>
<svg xmlns="http://www.w3.org/2000/svg"
	xmlns:xlink="http://www.w3.org/1999/xlink"
	width="12px" height="12px" viewBox="0 0 12 12">
<filter filterUnits="objectBoundingBox" x="0.00" y="0.00" width="100.00" height="100.00" id="filter0">
<feFlood flood-color="rgb(51,51,51)" result="coFloodOut1"/>
<feComposite in="coFloodOut1" in2="SourceAlpha" operator="in" result="coOverlay1"/>
<feBlend in="coOverlay1" in2="SourceGraphic" mode="normal" result="colorOverlay1"/>
</filter>
<path fillRule="evenodd" d="M 7.12 6.19C 7.12 6.19 11.46 10.54 11.46 10.54 11.72 10.81 11.72 11.24 11.46 11.51 11.19 11.77 10.76 11.77 10.49 11.51 10.49 11.51 6.15 7.16 6.15 7.16 6.15 7.16 1.81 11.51 1.81 11.51 1.55 11.77 1.12 11.77 0.85 11.51 0.58 11.24 0.58 10.81 0.85 10.54 0.85 10.54 5.19 6.19 5.19 6.19 5.19 6.19 0.85 1.85 0.85 1.85 0.58 1.58 0.58 1.15 0.85 0.88 1.12 0.61 1.55 0.61 1.81 0.88 1.81 0.88 6.15 5.23 6.15 5.23 6.15 5.23 10.49 0.88 10.49 0.88 10.76 0.61 11.19 0.61 11.46 0.88 11.72 1.15 11.72 1.58 11.46 1.85 11.46 1.85 7.12 6.19 7.12 6.19Z" fill="rgb(255,255,255)" opacity="0.30" filter="url(#filter0)"/></svg>